<svg width="1280" height="1244" fill="none" xmlns="http://www.w3.org/2000/svg"><g filter="url('#filter0_f_325_477')"><path d="M4.03 455c0 46.537-3.632 97.314 69.973 138.843 60.204 33.969 177.156 41.21 283.161 50.071 152.27 12.728 305.954 17.881 459.075 3.061 36.074-3.491 87.211-14.335 119.673-21.209 63.395-13.424 123.878-21.252 196.188-26.894 70.54-5.503 59.11-44.908 107.9-61.222" stroke="url('#paint0_linear_325_477')" stroke-opacity=".2" stroke-width="205" stroke-linecap="round"/></g><g filter="url('#filter1_f_325_477')"><path d="M615.934 793.922c-17.51 43.117-34.981 90.827-83.737 115.85-39.878 20.467-95.243 5.799-146.289-5.368-73.325-16.041-144.437-39.358-207.779-81.078-14.923-9.829-33.86-29.223-45.885-41.525-23.482-24.026-47.758-42.334-78.183-60.779-29.679-17.992-9.707-52.412-25.53-76.446" stroke="url('#paint1_linear_325_477')" stroke-opacity=".2" stroke-width="205" stroke-linecap="round"/></g><g filter="url('#filter2_f_325_477')"><path d="M866.488 401.355c32.148-33.648 65.95-71.58 120.492-76.906 44.61-4.356 90.69 29.657 134.05 58.825 62.28 41.898 119.82 89.748 163.36 151.85 10.26 14.631 20.73 39.632 27.39 55.497 12.99 30.98 28.82 56.937 50.33 85.284 20.97 27.652-10.27 52.307-4.4 80.477" stroke="url('#paint2_linear_325_477')" stroke-opacity=".2" stroke-width="205" stroke-linecap="round"/></g><defs><linearGradient id="paint0_linear_325_477" x1="-20.623" y1="583.417" x2="1109.71" y2="580.077" gradientUnits="userSpaceOnUse"><stop stop-color="#00C5EB"/><stop offset="1" stop-color="#B544FE"/></linearGradient><linearGradient id="paint1_linear_325_477" x1="578.711" y1="917.408" x2="70.245" y2="710.063" gradientUnits="userSpaceOnUse"><stop stop-color="#00C5EB"/><stop offset="1" stop-color="#B544FE"/></linearGradient><linearGradient id="paint2_linear_325_477" x1="946.541" y1="300.232" x2="1343.02" y2="680.14" gradientUnits="userSpaceOnUse"><stop stop-color="#00C5EB"/><stop offset="1" stop-color="#B544FE"/></linearGradient><filter id="filter0_f_325_477" x="-319.58" y="131.5" width="1883.11" height="847.999" filterUnits="userSpaceOnUse" color-interpolation-filters="sRGB"><feFlood flood-opacity="0" result="BackgroundImageFix"/><feBlend in="SourceGraphic" in2="BackgroundImageFix" result="shape"/><feGaussianBlur stdDeviation="110.5" result="effect1_foregroundBlur_325_477"/></filter><filter id="filter1_f_325_477" x="-294.98" y="321.065" width="1234.44" height="922.46" filterUnits="userSpaceOnUse" color-interpolation-filters="sRGB"><feFlood flood-opacity="0" result="BackgroundImageFix"/><feBlend in="SourceGraphic" in2="BackgroundImageFix" result="shape"/><feGaussianBlur stdDeviation="110.5" result="effect1_foregroundBlur_325_477"/></filter><filter id="filter2_f_325_477" x="542.987" y=".568" width="1149.96" height="1079.33" filterUnits="userSpaceOnUse" color-interpolation-filters="sRGB"><feFlood flood-opacity="0" result="BackgroundImageFix"/><feBlend in="SourceGraphic" in2="BackgroundImageFix" result="shape"/><feGaussianBlur stdDeviation="110.5" result="effect1_foregroundBlur_325_477"/></filter></defs></svg>