<svg aria-hidden="true" style="width:0;height:0;position:absolute;overflow:hidden" xmlns="http://www.w3.org/2000/svg"><defs><symbol id="icon-gradient" viewBox="0 0 24 32"><path fill="#7d55ff" style="fill:var(--color1,#7d55ff)" opacity=".5" d="M18.251 20.948c-1.586 4.474-5.722 7.09-9.239 5.843s-5.083-5.884-3.497-10.357c1.586-4.474 5.722-7.09 9.239-5.843s5.083 5.884 3.497 10.357z"/><path fill="#00c5eb" style="fill:var(--color2,#00c5eb)" opacity=".5" d="M21.126 15.091c2.099-4.184 1.753-8.603-.773-9.87s-6.275 1.097-8.374 5.281c-2.099 4.184-1.753 8.603.773 9.87s6.275-1.097 8.374-5.281z"/></symbol><symbol id="icon-iphone" viewBox="0 0 28 32"><path style="fill:var(--color1,#000)" opacity=".7" d="M1.101 8.05h24.107v23.924H1.101V8.05z"/><path style="fill:var(--color1,#000)" d="M.489.035h28.084v29.92H.489V.035z"/><path style="fill:var(--color1,#000)" d="M0 .035h26.31V28.18H0V.035z"/></symbol><symbol id="icon-elipse23" viewBox="0 0 20 32"><path fill="#d9d9d9" style="fill:var(--color1,#d9d9d9)" d="M16.569 6.361c.379.227-1.903 4.728-5.098 10.052s-6.091 9.455-6.47 9.228c-.379-.227 1.903-4.728 5.098-10.052s6.091-9.455 6.47-9.228z"/><path fill="#00c5eb" style="fill:var(--color2,#00c5eb)" opacity=".5" d="M16.569 6.361c.379.227-1.903 4.728-5.098 10.052s-6.091 9.455-6.47 9.228c-.379-.227 1.903-4.728 5.098-10.052s6.091-9.455 6.47-9.228z"/></symbol><symbol id="icon-elipse24" viewBox="0 0 17 32"><path fill="#7d55ff" style="fill:var(--color3,#7d55ff)" opacity=".5" d="M8.392 8.353c.493.296-1.163 3.962-3.699 8.188s-4.992 7.413-5.485 7.117c-.493-.296 1.163-3.962 3.699-8.188s4.992-7.413 5.485-7.117z"/></symbol><symbol id="icon-linkedin" viewBox="0 0 38 32"><path d="M37.867 3.691a15.04 15.04 0 0 1-1.733 2.141 16.152 16.152 0 0 1-2.096 1.813c.024.335.036.67.037 1.005 0 1.531-.163 3.043-.491 4.539a22.604 22.604 0 0 1-1.424 4.339 22.517 22.517 0 0 1-3.371 5.44 20.675 20.675 0 0 1-4.587 4.056 20.876 20.876 0 0 1-5.587 2.533c-2.063.59-4.199.886-6.344.877a21.78 21.78 0 0 1-6.115-.867 21.165 21.165 0 0 1-5.624-2.581 15.363 15.363 0 0 0 11.338-3.174 7.588 7.588 0 0 1-6.061-3.174 7.683 7.683 0 0 1-1.085-2.133c.243.037.483.069.72.093.915.09 1.839.009 2.725-.237a7.48 7.48 0 0 1-2.469-.965 7.832 7.832 0 0 1-1.941-1.688 7.569 7.569 0 0 1-1.733-4.859v-.088a7.427 7.427 0 0 0 3.483.965 7.849 7.849 0 0 1-2.496-2.773 7.891 7.891 0 0 1-.675-1.731 7.857 7.857 0 0 1 .019-3.875 6.85 6.85 0 0 1 .784-1.848 21.105 21.105 0 0 0 3.243 3.235 21.917 21.917 0 0 0 8.021 4.067c1.477.396 2.992.631 4.52.701-.074-.284-.125-.574-.155-.867s-.045-.588-.045-.883c0-1.059.2-2.053.603-2.981A7.713 7.713 0 0 1 23.403.696a7.437 7.437 0 0 1 2.979-.6 7.597 7.597 0 0 1 5.597 2.424A15.2 15.2 0 0 0 36.827.659a7.506 7.506 0 0 1-3.355 4.229 15.219 15.219 0 0 0 4.395-1.197v-.003z"/></symbol><symbol id="icon-instagram" viewBox="0 0 32 32"><path d="M7.409 31.111H.959V10.34h6.45v20.771zM4.18 7.507C2.118 7.507.444 5.798.444 3.736a3.735 3.735 0 0 1 7.47 0c0 2.062-1.673 3.771-3.736 3.771zm27.369 23.604h-6.436V21c0-2.41-.049-5.5-3.353-5.5-3.353 0-3.868 2.618-3.868 5.327v10.284h-6.443V10.34h6.186v2.833h.09c.861-1.632 2.964-3.354 6.102-3.354 6.528 0 7.728 4.299 7.728 9.882v11.41h-.006z"/></symbol><symbol id="icon-facebook" viewBox="0 0 18 32"><path d="M17.778 2.018c0-.218-.085-.427-.237-.582s-.357-.241-.571-.241h-4.04c-2.035-.103-4.027.618-5.541 2.005s-2.427 3.329-2.54 5.4v4.443H.809c-.214 0-.42.087-.571.241s-.237.364-.237.582v4.278c0 .218.085.428.237.582s.357.241.571.241h4.04v11.025c0 .218.085.427.237.582s.357.241.571.241h4.848c.214 0 .42-.087.571-.241s.237-.364.237-.582V18.967h4.234a.814.814 0 0 0 .792-.609l1.164-4.278c.032-.122.036-.249.013-.373a.815.815 0 0 0-.788-.664h-5.414V8.6c.04-.407.228-.785.527-1.059s.687-.424 1.089-.422h4.04c.214 0 .42-.087.571-.241s.237-.364.237-.582V2.018z"/></symbol><symbol id="icon-ellipsefot1" viewBox="0 0 18 32"><path fill="#7d55ff" style="fill:var(--color1,#7d55ff)" opacity=".3" d="M9.581 18.946C7.328 23.864 3 26.53-.086 24.901s-3.761-6.936-1.508-11.854C.659 8.129 4.987 5.463 8.073 7.092s3.761 6.936 1.508 11.854z"/></symbol><symbol id="icon-ellipsefot2" viewBox="0 0 21 32"><path fill="#00c5eb" style="fill:var(--color2,#00c5eb)" opacity=".3" d="M20.89 12.002c-4.145-4.227-9.598-5.875-12.181-3.681s-1.317 7.399 2.828 11.627c4.145 4.227 9.598 5.875 12.181 3.681s1.317-7.399-2.828-11.627z"/></symbol><symbol id="icon-rozpilenia" viewBox="0 0 34 32"><path fill="#00c5eb" style="fill:var(--color1,#00c5eb)" opacity=".4" d="M8.054 11.264c.527-.895 4.635.545 9.176 3.218s7.794 5.565 7.267 6.46c-.527.895-4.635-.545-9.176-3.218s-7.794-5.565-7.267-6.46z"/><path fill="#7d55ff" style="fill:var(--color2,#7d55ff)" opacity=".4" d="M18.575 21.821c.527-.895 3.201-.299 5.972 1.332s4.591 3.679 4.064 4.574c-.527.895-3.201.299-5.972-1.332s-4.591-3.679-4.064-4.574z"/></symbol><symbol id="icon-facebook-hover" viewBox="0 0 20 20"><path d="M14 1.667h-2.5a4.167 4.167 0 0 0-4.167 4.166v2.5h-2.5v3.334h2.5v6.666h3.334v-6.666h2.5L14 8.333h-3.333v-2.5A.833.833 0 0 1 11.5 5H14V1.667Z" stroke="url('#paint0_linear_2680_41')" stroke-linecap="round" stroke-linejoin="round"/></symbol><symbol id="icon-twitter-hover" viewBox="0 0 20 20"><path d="M18.834 3.5c-.74.521-1.56.92-2.427 1.182A3.461 3.461 0 0 0 10.334 7v.773a8.237 8.237 0 0 1-6.955-3.5S.288 11.226 7.243 14.316a8.995 8.995 0 0 1-5.41 1.546c6.955 3.864 15.455 0 15.455-8.886 0-.216-.021-.43-.062-.642A5.965 5.965 0 0 0 18.834 3.5Z" stroke="url('#paint0_linear_2675_2')" stroke-linecap="round" stroke-linejoin="round"/></symbol><symbol id="icon-linkedin-hover" viewBox="0 0 20 20"><path d="M18.25 11.082V17h-2.624v-5.188c0-.655 0-1.53-.281-2.239a2.092 2.092 0 0 0-.74-.972c-.365-.254-.82-.382-1.365-.382-.537 0-.996.105-1.378.316a2.168 2.168 0 0 0-.855.869c-.374.678-.443 1.54-.443 2.311V17H7.94V6.316h2.48V7.91h.851l.141-.267c.402-.762 1.42-1.62 2.99-1.62 1.713 0 2.615.553 3.128 1.368.546.868.72 2.131.72 3.69ZM4.667 17H2.039V6.316h2.629V17ZM3.35 3.723c-.877 0-1.601-.732-1.601-1.622a1.601 1.601 0 1 1 3.202 0c0 .89-.723 1.622-1.6 1.622Z" stroke="url('#paint0_linear_1282_54')"/></symbol></defs></svg>