<svg width="320" height="1886" viewBox="0 0 320 1886" fill="none" xmlns="http://www.w3.org/2000/svg">
<g filter="url(#filter0_f_135_754)">
<path d="M5.00428 410.057C29.8234 380.409 56.3429 347.591 89.8613 330.651C117.277 316.796 139.206 327.306 160.306 335.369C190.616 346.951 217.105 363.542 232.854 392.784C236.564 399.673 238.681 413.194 240.029 421.772C242.663 438.522 247.83 451.33 255.992 464.275C263.953 476.903 241.172 500.529 240.009 517.232" stroke="url(#paint0_linear_135_754)" stroke-opacity="0.2" stroke-width="205" stroke-linecap="round"/>
</g>
<g filter="url(#filter1_f_135_754)">
<path d="M349.839 1189.01C353.017 1222.87 346.423 1260.04 337.368 1283.5C331.106 1299.71 322.211 1313.99 312.138 1318.67C302.506 1323.15 291.793 1322.23 281.736 1323.17C274.051 1323.89 266.72 1323.24 258.88 1321.33C251.292 1319.49 243.868 1320.42 236.29 1318.95C201.844 1312.29 154.01 1304.49 136.1 1371.03C131.16 1389.39 123.305 1405.19 116.067 1419.05C106.246 1437.86 96.7887 1458.62 86.4961 1476.19C79.373 1488.35 71.0757 1499.25 62.4452 1506.67C55.0651 1513.01 48.1138 1514.94 39.7818 1515.72C30.302 1516.61 20.8222 1517.5 11.3425 1518.39C4.51137 1519.03 -0.603721 1516.75 -4.91969 1527.02C-14.1487 1548.96 -28.4058 1572.97 -44.8773 1561.06" stroke="url(#paint1_linear_135_754)" stroke-opacity="0.25" stroke-width="205" stroke-linecap="round"/>
</g>
<defs>
<filter id="filter0_f_135_754" x="-318.498" y="0.541992" width="899.655" height="840.194" filterUnits="userSpaceOnUse" color-interpolation-filters="sRGB">
<feFlood flood-opacity="0" result="BackgroundImageFix"/>
<feBlend mode="normal" in="SourceGraphic" in2="BackgroundImageFix" result="shape"/>
<feGaussianBlur stdDeviation="110.5" result="effect1_foregroundBlur_135_754"/>
</filter>
<filter id="filter1_f_135_754" x="-366.385" y="867.5" width="1038.53" height="1018.25" filterUnits="userSpaceOnUse" color-interpolation-filters="sRGB">
<feFlood flood-opacity="0" result="BackgroundImageFix"/>
<feBlend mode="normal" in="SourceGraphic" in2="BackgroundImageFix" result="shape"/>
<feGaussianBlur stdDeviation="109.5" result="effect1_foregroundBlur_135_754"/>
</filter>
<linearGradient id="paint0_linear_135_754" x1="69.6837" y1="325.057" x2="244.188" y2="471.353" gradientUnits="userSpaceOnUse">
<stop stop-color="#00C5EB"/>
<stop offset="1" stop-color="#B544FE"/>
</linearGradient>
<linearGradient id="paint1_linear_135_754" x1="430.934" y1="1184.19" x2="-37.5645" y2="1310.32" gradientUnits="userSpaceOnUse">
<stop stop-color="#00C5EB"/>
<stop offset="0.447917" stop-color="#3D99F1" stop-opacity="0.62"/>
<stop offset="1" stop-color="#B544FE"/>
</linearGradient>
</defs>
</svg>
